<?xml version="1.0" encoding="UTF-8" standalone="no"?>
<svg width="800" height="400" viewBox="0 0 800 400" xmlns="http://www.w3.org/2000/svg">
  <rect width="800" height="400" fill="#7dd3f9"/>
  <g transform="translate(100, 200)">
    <!-- Shadow effect for text -->
    <path d="M30,0 Q40,-10 50,-5 Q60,-10 70,0 Q80,-10 90,-5 Q100,-10 110,0 Q120,-10 130,-5 Q140,-10 150,0 Q160,-10 170,-5 Q180,-10 190,0 Q200,-10 210,-5 Q220,-10 230,0 Q240,-10 250,-5 Q260,-10 270,0 Q280,-10 290,-5 Q300,-10 310,0 Q320,-10 330,-5 Q340,-10 350,0 Q360,-10 370,-5 Q380,-10 390,0 Q400,-10 410,-5 Q420,-10 430,0 Q440,-10 450,-5 Q460,-10 470,0 Q480,-10 490,-5 Q500,-10 510,0" fill="none" stroke="#333" stroke-width="2" stroke-dasharray="5,5" transform="translate(5, 5)"/>
    
    <!-- SWIMFIT text -->
    <path d="M30,0 Q40,-10 50,-5 Q60,-10 70,0 Q80,-10 90,-5 Q100,-10 110,0 Q120,-10 130,-5 Q140,-10 150,0 Q160,-10 170,-5 Q180,-10 190,0 Q200,-10 210,-5 Q220,-10 230,0 Q240,-10 250,-5 Q260,-10 270,0 Q280,-10 290,-5 Q300,-10 310,0 Q320,-10 330,-5 Q340,-10 350,0 Q360,-10 370,-5 Q380,-10 390,0 Q400,-10 410,-5 Q420,-10 430,0 Q440,-10 450,-5 Q460,-10 470,0 Q480,-10 490,-5 Q500,-10 510,0" fill="none" stroke="#4CAF50" stroke-width="20" stroke-linecap="round"/>
    
    <!-- S -->
    <path d="M30,0 C40,-20 55,-25 65,-10 C75,5 60,15 60,30 C60,45 85,50 90,20" fill="none" stroke="#4CAF50" stroke-width="20" stroke-linecap="round"/>
    
    <!-- W -->
    <path d="M100,0 L115,30 L130,10 L145,30 L160,0" fill="none" stroke="#4CAF50" stroke-width="20" stroke-linecap="round"/>
    
    <!-- I -->
    <path d="M180,0 L180,30" fill="none" stroke="#4CAF50" stroke-width="20" stroke-linecap="round"/>
    
    <!-- M -->
    <path d="M210,30 L210,0 L240,25 L270,0 L270,30" fill="none" stroke="#4CAF50" stroke-width="20" stroke-linecap="round"/>
    
    <!-- F -->
    <path d="M300,0 L300,30 M300,5 L330,5 M300,15 L320,15" fill="none" stroke="#4CAF50" stroke-width="20" stroke-linecap="round"/>
    
    <!-- I -->
    <path d="M350,0 L350,30" fill="none" stroke="#4CAF50" stroke-width="20" stroke-linecap="round"/>
    
    <!-- T -->
    <path d="M370,0 L430,0 M400,0 L400,30" fill="none" stroke="#4CAF50" stroke-width="20" stroke-linecap="round"/>
    
    <!-- Swimmer icon -->
    <path d="M200,70 L300,70 C340,70 350,90 370,90 C390,90 400,70 430,70 L490,70" fill="none" stroke="#FFC107" stroke-width="25" stroke-linecap="round"/>
    <circle cx="220" cy="60" r="15" fill="#FFC107"/>
    
    <!-- Water ripples -->
    <path d="M180,100 Q190,90 200,100" fill="none" stroke="#7dd3f9" stroke-width="5"/>
    <path d="M430,100 Q440,90 450,100" fill="none" stroke="#7dd3f9" stroke-width="5"/>
    <path d="M470,100 Q480,90 490,100" fill="none" stroke="#7dd3f9" stroke-width="5"/>
    <path d="M510,100 Q520,90 530,100" fill="none" stroke="#7dd3f9" stroke-width="5"/>
  </g>
</svg>
